<svg width="16" height="16" viewBox="0 0 16 16" fill="none" xmlns="http://www.w3.org/2000/svg">
<path d="M8 0C12.411 0 16 3.589 16 8C16 9.538 15.569 11.015 14.752 12.288L15.964 15.314C16.038 15.5 15.995 15.712 15.853 15.854C15.758 15.949 15.63 16 15.5 16C15.437 16 15.375 15.988 15.314 15.964L12.288 14.752C11.015 15.569 9.538 16 8 16C3.589 16 0 12.411 0 8C0 3.589 3.589 0 8 0ZM8 15C9.426 15 10.791 14.578 11.946 13.779C12.03 13.72 12.13 13.69 12.23 13.69C12.293 13.69 12.356 13.702 12.416 13.726L14.602 14.602L13.726 12.416C13.664 12.26 13.684 12.083 13.779 11.946C14.578 10.791 15 9.426 15 8C15 4.14 11.86 1 8 1C4.14 1 1 4.14 1 8C1 11.86 4.14 15 8 15Z" fill="#D0D0D0"/>
<path d="M7.5 9H11.5C11.776 9 12 9.224 12 9.5C12 9.776 11.776 10 11.5 10H7.5C7.224 10 7 9.776 7 9.5C7 9.224 7.224 9 7.5 9Z" fill="#D0D0D0"/>
<path d="M4.5 6H11.5C11.776 6 12 6.224 12 6.5C12 6.776 11.776 7 11.5 7H4.5C4.224 7 4 6.776 4 6.5C4 6.224 4.224 6 4.5 6Z" fill="#D0D0D0"/>
</svg>
