<svg width="382" height="166" viewBox="0 0 382 166" fill="none" xmlns="http://www.w3.org/2000/svg">
<path d="M114.53 79H73.1089V70.7822L92.6572 49.9473C95.3411 47.0143 97.3195 44.4549 98.5923 42.269C99.8927 40.0832 100.543 38.008 100.543 36.0435C100.543 33.3595 99.8651 31.2567 98.5093 29.7349C97.1535 28.1854 95.2166 27.4106 92.6987 27.4106C89.9871 27.4106 87.8428 28.3514 86.2656 30.2329C84.7161 32.0868 83.9414 34.5355 83.9414 37.5791H71.9053C71.9053 33.8991 72.7769 30.5373 74.52 27.4937C76.2909 24.45 78.7811 22.0705 81.9907 20.355C85.2004 18.6118 88.8389 17.7402 92.9062 17.7402C99.1318 17.7402 103.96 19.2344 107.391 22.2227C110.85 25.2109 112.579 29.4305 112.579 34.8813C112.579 37.8696 111.804 40.9132 110.255 44.0122C108.705 47.1112 106.049 50.722 102.286 54.8447L88.5483 69.3296H114.53V79ZM162.591 54.0146C162.591 62.3708 160.862 68.7624 157.403 73.1895C153.945 77.6165 148.881 79.8301 142.213 79.8301C135.628 79.8301 130.592 77.658 127.105 73.314C123.619 68.9699 121.834 62.7443 121.751 54.6372V43.5142C121.751 35.075 123.495 28.6696 126.981 24.2979C130.495 19.9261 135.545 17.7402 142.13 17.7402C148.715 17.7402 153.751 19.9123 157.237 24.2563C160.724 28.5728 162.508 34.7845 162.591 42.8916V54.0146ZM150.597 41.8125C150.597 36.8044 149.905 33.1659 148.521 30.897C147.166 28.6004 145.035 27.4521 142.13 27.4521C139.308 27.4521 137.219 28.5451 135.863 30.731C134.535 32.8892 133.829 36.2786 133.746 40.8994V55.5918C133.746 60.5169 134.41 64.1831 135.738 66.5903C137.094 68.9699 139.252 70.1597 142.213 70.1597C145.146 70.1597 147.263 69.0114 148.563 66.7148C149.863 64.4183 150.541 60.9043 150.597 56.1729V41.8125Z" fill="#FF0000"/>
<path d="M170.616 71.605C172.69 69.4045 174.097 67.2251 174.837 65.0669C175.578 62.9087 175.991 59.8512 176.075 55.8945L176.329 44.6592H201.593V71.605H206.544V89.3149H197.372V79H177.027V89.3149H167.665V71.605H170.616ZM181.439 71.605H192.452V52.2446H185.311L185.248 56.3706C185.057 62.6759 183.788 67.7541 181.439 71.605ZM240.409 79H231.205V65.7969H219.811V79H210.638V44.6592H219.811V58.4336H231.205V44.6592H240.409V79ZM263.324 79.6348C258.288 79.6348 254.183 78.0902 251.009 75.001C247.857 71.9118 246.28 67.7964 246.28 62.6548V61.7661C246.28 58.3172 246.947 55.2386 248.28 52.5303C249.613 49.8008 251.496 47.7061 253.929 46.2461C256.384 44.765 259.177 44.0244 262.308 44.0244C267.005 44.0244 270.698 45.5055 273.385 48.4678C276.093 51.43 277.447 55.63 277.447 61.0679V64.813H255.58C255.876 67.0558 256.764 68.8543 258.246 70.2085C259.748 71.5627 261.642 72.2397 263.927 72.2397C267.46 72.2397 270.222 70.9596 272.21 68.3994L276.717 73.4458C275.342 75.3924 273.48 76.9159 271.131 78.0161C268.783 79.0952 266.18 79.6348 263.324 79.6348ZM262.276 51.4512C260.457 51.4512 258.976 52.0648 257.833 53.292C256.712 54.5192 255.992 56.2754 255.675 58.5605H268.434V57.8306C268.391 55.7993 267.841 54.2336 266.783 53.1333C265.725 52.0119 264.223 51.4512 262.276 51.4512ZM303.377 44.6592H312.55V79H303.377V57.7988L291.888 79H282.684V44.6592H291.888V65.8286L303.377 44.6592ZM308.773 30.7261C308.773 33.5402 307.757 35.8148 305.726 37.5498C303.716 39.2848 301.071 40.1523 297.792 40.1523C294.512 40.1523 291.856 39.2954 289.825 37.5815C287.815 35.8677 286.81 33.5825 286.81 30.7261H293.316C293.316 32.0591 293.708 33.0959 294.491 33.8364C295.295 34.5558 296.395 34.9155 297.792 34.9155C299.167 34.9155 300.246 34.5558 301.029 33.8364C301.812 33.0959 302.203 32.0591 302.203 30.7261H308.773Z" fill="#FFFF00"/>
<path d="M114.53 79V80H115.53V79H114.53ZM73.1089 79H72.1089V80H73.1089V79ZM73.1089 70.7822L72.3796 70.098L72.1089 70.3865V70.7822H73.1089ZM92.6572 49.9473L93.3865 50.6315L93.395 50.6224L92.6572 49.9473ZM98.5923 42.269L97.7328 41.7577L97.7281 41.7659L98.5923 42.269ZM98.5093 29.7349L97.7567 30.3934L97.7626 30.4001L98.5093 29.7349ZM86.2656 30.2329L85.4993 29.5905L85.4983 29.5916L86.2656 30.2329ZM83.9414 37.5791V38.5791H84.9414V37.5791H83.9414ZM71.9053 37.5791H70.9053V38.5791H71.9053V37.5791ZM74.52 27.4937L73.6557 26.9907L73.6523 26.9967L74.52 27.4937ZM81.9907 20.355L82.4621 21.2369L82.468 21.2337L81.9907 20.355ZM107.391 22.2227L106.734 22.9767L106.737 22.9793L107.391 22.2227ZM110.255 44.0122L111.149 44.4594L110.255 44.0122ZM102.286 54.8447L103.012 55.5329L103.018 55.5259L103.025 55.5189L102.286 54.8447ZM88.5483 69.3296L87.8228 68.6414L86.2217 70.3296H88.5483V69.3296ZM114.53 69.3296H115.53V68.3296H114.53V69.3296ZM114.53 78H73.1089V80H114.53V78ZM74.1089 79V70.7822H72.1089V79H74.1089ZM73.8382 71.4665L93.3865 50.6315L91.928 49.263L72.3796 70.098L73.8382 71.4665ZM93.395 50.6224C96.103 47.663 98.1335 45.0443 99.4565 42.7722L97.7281 41.7659C96.5055 43.8655 94.5792 46.3656 91.9195 49.2722L93.395 50.6224ZM99.4517 42.7803C100.818 40.4844 101.543 38.2336 101.543 36.0435H99.543C99.543 37.7823 98.9679 39.6819 97.7329 41.7578L99.4517 42.7803ZM101.543 36.0435C101.543 33.1935 100.821 30.8262 99.2559 29.0697L97.7626 30.4001C98.9092 31.6871 99.543 33.5256 99.543 36.0435H101.543ZM99.2619 29.0764C97.6745 27.2623 95.4351 26.4106 92.6987 26.4106V28.4106C94.9982 28.4106 96.6324 29.1085 97.7567 30.3934L99.2619 29.0764ZM92.6987 26.4106C89.7263 26.4106 87.2878 27.4569 85.4993 29.5905L87.032 30.8753C88.3978 29.2459 90.248 28.4106 92.6987 28.4106V26.4106ZM85.4983 29.5916C83.7628 31.6681 82.9414 34.3635 82.9414 37.5791H84.9414C84.9414 34.7074 85.6695 32.5054 87.0329 30.8742L85.4983 29.5916ZM83.9414 36.5791H71.9053V38.5791H83.9414V36.5791ZM72.9053 37.5791C72.9053 34.0645 73.7356 30.8754 75.3878 27.9906L73.6523 26.9967C71.8181 30.1991 70.9053 33.7336 70.9053 37.5791H72.9053ZM75.3844 27.9965C77.0587 25.1188 79.4103 22.868 82.4621 21.2369L81.5193 19.473C78.1519 21.2729 75.523 23.7812 73.6557 26.9908L75.3844 27.9965ZM82.468 21.2337C85.5151 19.5789 88.9863 18.7402 92.9062 18.7402V16.7402C88.6914 16.7402 84.8857 17.6448 81.5135 19.4762L82.468 21.2337ZM92.9062 18.7402C98.9796 18.7402 103.543 20.1972 106.734 22.9767L108.048 21.4686C104.377 18.2716 99.2841 16.7402 92.9062 16.7402V18.7402ZM106.737 22.9793C109.934 25.7409 111.579 29.6596 111.579 34.8813H113.579C113.579 29.2014 111.766 24.681 108.045 21.466L106.737 22.9793ZM111.579 34.8813C111.579 37.6914 110.852 40.5827 109.36 43.565L111.149 44.4594C112.757 41.2437 113.579 38.0479 113.579 34.8813H111.579ZM109.36 43.565C107.869 46.5469 105.281 50.0799 101.548 54.1706L103.025 55.5189C106.817 51.3642 109.541 47.6754 111.149 44.4594L109.36 43.565ZM101.561 54.1566L87.8228 68.6414L89.2739 70.0177L103.012 55.5329L101.561 54.1566ZM88.5483 70.3296H114.53V68.3296H88.5483V70.3296ZM113.53 69.3296V79H115.53V69.3296H113.53ZM157.403 73.1895L158.191 73.8051L157.403 73.1895ZM121.751 54.6372L120.751 54.6372L120.752 54.6474L121.751 54.6372ZM126.981 24.2979L126.202 23.6713L126.199 23.6744L126.981 24.2979ZM157.237 24.2563L156.457 24.8823L156.459 24.8847L157.237 24.2563ZM162.591 42.8916L163.591 42.8916L163.591 42.8814L162.591 42.8916ZM148.521 30.897L147.66 31.4054L147.664 31.4115L147.668 31.4176L148.521 30.897ZM135.863 30.731L135.013 30.2039L135.011 30.2069L135.863 30.731ZM133.746 40.8994L132.746 40.8815L132.746 40.8904V40.8994H133.746ZM135.738 66.5903L134.863 67.0735L134.869 67.0854L135.738 66.5903ZM148.563 66.7148L147.693 66.2221L148.563 66.7148ZM150.597 56.1729L151.597 56.1845V56.1729H150.597ZM161.591 54.0146C161.591 62.2519 159.884 68.39 156.615 72.5738L158.191 73.8051C161.84 69.1347 163.591 62.4897 163.591 54.0146H161.591ZM156.615 72.5738C153.383 76.7117 148.638 78.8301 142.213 78.8301V80.8301C149.125 80.8301 154.507 78.5214 158.191 73.8051L156.615 72.5738ZM142.213 78.8301C135.869 78.8301 131.146 76.7514 127.885 72.6881L126.326 73.9399C130.037 78.5647 135.386 80.8301 142.213 80.8301V78.8301ZM127.885 72.6881C124.591 68.5827 122.833 62.6087 122.751 54.627L120.752 54.6474C120.836 62.8799 122.648 69.3571 126.326 73.9399L127.885 72.6881ZM122.751 54.6372V43.5142H120.751V54.6372H122.751ZM122.751 43.5142C122.751 35.1914 124.474 29.0457 127.763 24.9213L126.199 23.6744C122.515 28.2935 120.751 34.9587 120.751 43.5142H122.751ZM127.76 24.9243C131.05 20.8312 135.789 18.7402 142.13 18.7402V16.7402C135.301 16.7402 129.939 19.0211 126.202 23.6714L127.76 24.9243ZM142.13 18.7402C148.474 18.7402 153.196 20.8189 156.457 24.8823L158.017 23.6304C154.306 19.0056 148.957 16.7402 142.13 16.7402V18.7402ZM156.459 24.8847C159.752 28.9612 161.51 34.9195 161.591 42.9018L163.591 42.8814C163.507 34.6495 161.695 28.1843 158.015 23.628L156.459 24.8847ZM161.591 42.8916V54.0146H163.591V42.8916H161.591ZM151.597 41.8125C151.597 36.7577 150.907 32.888 149.375 30.3764L147.668 31.4176C148.903 33.4437 149.597 36.851 149.597 41.8125H151.597ZM149.383 30.3886C147.828 27.7558 145.351 26.4521 142.13 26.4521V28.4521C144.72 28.4521 146.503 29.4451 147.66 31.4054L149.383 30.3886ZM142.13 26.4521C139.002 26.4521 136.571 27.6913 135.013 30.2039L136.713 31.2581C137.866 29.3989 139.613 28.4521 142.13 28.4521V26.4521ZM135.011 30.2069C133.54 32.5974 132.83 36.2076 132.746 40.8815L134.746 40.9174C134.828 36.3497 135.529 33.1809 136.714 31.2551L135.011 30.2069ZM132.746 40.8994V55.5918H134.746V40.8994H132.746ZM132.746 55.5918C132.746 60.5714 133.411 64.4429 134.863 67.0734L136.614 66.1073C135.409 63.9233 134.746 60.4624 134.746 55.5918H132.746ZM134.869 67.0854C136.42 69.8068 138.929 71.1597 142.213 71.1597V69.1597C139.576 69.1597 137.768 68.1329 136.607 66.0953L134.869 67.0854ZM142.213 71.1597C145.457 71.1597 147.932 69.8578 149.433 67.2076L147.693 66.2221C146.593 68.165 144.834 69.1597 142.213 69.1597V71.1597ZM149.433 67.2076C150.859 64.6893 151.541 60.9702 151.597 56.1845L149.597 56.1612C149.542 60.8384 148.868 64.1473 147.693 66.2221L149.433 67.2076ZM151.597 56.1729V41.8125H149.597V56.1729H151.597ZM170.616 71.605V72.605H171.048L171.344 72.2908L170.616 71.605ZM174.837 65.0669L175.783 65.3915L174.837 65.0669ZM176.075 55.8945L175.075 55.8719L175.075 55.8731L176.075 55.8945ZM176.329 44.6592V43.6592H175.351L175.329 44.6366L176.329 44.6592ZM201.593 44.6592H202.593V43.6592H201.593V44.6592ZM201.593 71.605H200.593V72.605H201.593V71.605ZM206.544 71.605H207.544V70.605H206.544V71.605ZM206.544 89.3149V90.3149H207.544V89.3149H206.544ZM197.372 89.3149H196.372V90.3149H197.372V89.3149ZM197.372 79H198.372V78H197.372V79ZM177.027 79V78H176.027V79H177.027ZM177.027 89.3149V90.3149H178.027V89.3149H177.027ZM167.665 89.3149H166.665V90.3149H167.665V89.3149ZM167.665 71.605V70.605H166.665V71.605H167.665ZM181.439 71.605L180.585 71.0843L179.658 72.605H181.439V71.605ZM192.452 71.605V72.605H193.452V71.605H192.452ZM192.452 52.2446H193.452V51.2446H192.452V52.2446ZM185.311 52.2446V51.2446H184.326L184.311 52.2292L185.311 52.2446ZM185.248 56.3706L186.247 56.4008L186.247 56.3934L186.247 56.386L185.248 56.3706ZM171.344 72.2908C173.485 70.0188 174.984 67.7204 175.783 65.3915L173.892 64.7423C173.21 66.7298 171.895 68.7901 169.888 70.9192L171.344 72.2908ZM175.783 65.3915C176.573 63.0894 176.989 59.9119 177.075 55.9159L175.075 55.8731C174.992 59.7906 174.583 62.728 173.892 64.7423L175.783 65.3915ZM177.075 55.9171L177.329 44.6818L175.329 44.6366L175.075 55.8719L177.075 55.9171ZM176.329 45.6592H201.593V43.6592H176.329V45.6592ZM200.593 44.6592V71.605H202.593V44.6592H200.593ZM201.593 72.605H206.544V70.605H201.593V72.605ZM205.544 71.605V89.3149H207.544V71.605H205.544ZM206.544 88.3149H197.372V90.3149H206.544V88.3149ZM198.372 89.3149V79H196.372V89.3149H198.372ZM197.372 78H177.027V80H197.372V78ZM176.027 79V89.3149H178.027V79H176.027ZM177.027 88.3149H167.665V90.3149H177.027V88.3149ZM168.665 89.3149V71.605H166.665V89.3149H168.665ZM167.665 72.605H170.616V70.605H167.665V72.605ZM181.439 72.605H192.452V70.605H181.439V72.605ZM193.452 71.605V52.2446H191.452V71.605H193.452ZM192.452 51.2446H185.311V53.2446H192.452V51.2446ZM184.311 52.2292L184.248 56.3552L186.247 56.386L186.311 52.26L184.311 52.2292ZM184.248 56.3404C184.061 62.538 182.815 67.4289 180.585 71.0843L182.293 72.1257C184.761 68.0792 186.053 62.8139 186.247 56.4008L184.248 56.3404ZM240.409 79V80H241.409V79H240.409ZM231.205 79H230.205V80H231.205V79ZM231.205 65.7969H232.205V64.7969H231.205V65.7969ZM219.811 65.7969V64.7969H218.811V65.7969H219.811ZM219.811 79V80H220.811V79H219.811ZM210.638 79H209.638V80H210.638V79ZM210.638 44.6592V43.6592H209.638V44.6592H210.638ZM219.811 44.6592H220.811V43.6592H219.811V44.6592ZM219.811 58.4336H218.811V59.4336H219.811V58.4336ZM231.205 58.4336V59.4336H232.205V58.4336H231.205ZM231.205 44.6592V43.6592H230.205V44.6592H231.205ZM240.409 44.6592H241.409V43.6592H240.409V44.6592ZM240.409 78H231.205V80H240.409V78ZM232.205 79V65.7969H230.205V79H232.205ZM231.205 64.7969H219.811V66.7969H231.205V64.7969ZM218.811 65.7969V79H220.811V65.7969H218.811ZM219.811 78H210.638V80H219.811V78ZM211.638 79V44.6592H209.638V79H211.638ZM210.638 45.6592H219.811V43.6592H210.638V45.6592ZM218.811 44.6592V58.4336H220.811V44.6592H218.811ZM219.811 59.4336H231.205V57.4336H219.811V59.4336ZM232.205 58.4336V44.6592H230.205V58.4336H232.205ZM231.205 45.6592H240.409V43.6592H231.205V45.6592ZM239.409 44.6592V79H241.409V44.6592H239.409ZM251.009 75.001L250.309 75.7152L250.312 75.7176L251.009 75.001ZM248.28 52.5303L249.177 52.9719L249.178 52.9691L248.28 52.5303ZM253.929 46.2461L254.444 47.1036L254.446 47.1023L253.929 46.2461ZM273.385 48.4678L272.644 49.1397L272.647 49.1425L273.385 48.4678ZM277.447 64.813V65.813H278.447V64.813H277.447ZM255.58 64.813V63.813H254.439L254.588 64.9439L255.58 64.813ZM258.246 70.2085L257.571 70.9465L257.576 70.9513L258.246 70.2085ZM272.21 68.3994L272.956 67.7333L272.157 66.8383L271.421 67.7859L272.21 68.3994ZM276.717 73.4458L277.534 74.0228L277.993 73.3731L277.463 72.7797L276.717 73.4458ZM271.131 78.0161L271.549 78.9248L271.556 78.9217L271.131 78.0161ZM257.833 53.292L257.101 52.6105L257.095 52.6174L257.833 53.292ZM255.675 58.5605L254.684 58.423L254.526 59.5605H255.675V58.5605ZM268.434 58.5605V59.5605H269.434V58.5605H268.434ZM268.434 57.8306H269.434V57.8202L269.433 57.8097L268.434 57.8306ZM266.783 53.1333L266.056 53.8196L266.062 53.8264L266.783 53.1333ZM263.324 78.6348C258.51 78.6348 254.668 77.1665 251.707 74.2844L250.312 75.7176C253.698 79.0138 258.066 80.6348 263.324 80.6348V78.6348ZM251.709 74.2867C248.78 71.4168 247.28 67.5757 247.28 62.6548H245.28C245.28 68.0171 246.933 72.4068 250.309 75.7152L251.709 74.2867ZM247.28 62.6548V61.7661H245.28V62.6548H247.28ZM247.28 61.7661C247.28 58.4484 247.921 55.5244 249.177 52.9719L247.383 52.0887C245.973 54.9528 245.28 58.186 245.28 61.7661H247.28ZM249.178 52.9691C250.433 50.4006 252.188 48.457 254.444 47.1036L253.415 45.3886C250.804 46.9551 248.793 49.201 247.381 52.0914L249.178 52.9691ZM254.446 47.1023C256.73 45.7238 259.341 45.0244 262.308 45.0244V43.0244C259.012 43.0244 256.037 43.8061 253.413 45.3899L254.446 47.1023ZM262.308 45.0244C266.777 45.0244 270.18 46.4232 272.644 49.1397L274.125 47.7959C271.215 44.5879 267.234 43.0244 262.308 43.0244V45.0244ZM272.647 49.1425C275.134 51.8635 276.447 55.79 276.447 61.0679H278.447C278.447 55.4701 277.052 50.9966 274.123 47.793L272.647 49.1425ZM276.447 61.0679V64.813H278.447V61.0679H276.447ZM277.447 63.813H255.58V65.813H277.447V63.813ZM254.588 64.9439C254.911 67.3885 255.894 69.4133 257.571 70.9465L258.92 69.4705C257.635 68.2954 256.841 66.7232 256.571 64.682L254.588 64.9439ZM257.576 70.9513C259.286 72.4927 261.429 73.2397 263.927 73.2397V71.2397C261.854 71.2397 260.21 70.6326 258.915 69.4657L257.576 70.9513ZM263.927 73.2397C267.737 73.2397 270.803 71.8411 273 69.0129L271.421 67.7859C269.64 70.0781 267.183 71.2397 263.927 71.2397V73.2397ZM271.465 69.0655L275.971 74.1119L277.463 72.7797L272.956 67.7333L271.465 69.0655ZM275.901 72.8688C274.634 74.6614 272.913 76.0772 270.707 77.1106L271.556 78.9217C274.047 77.7545 276.05 76.1235 277.534 74.0228L275.901 72.8688ZM270.714 77.1074C268.509 78.1203 266.051 78.6348 263.324 78.6348V80.6348C266.309 80.6348 269.056 80.0701 271.549 78.9248L270.714 77.1074ZM262.276 50.4512C260.205 50.4512 258.45 51.1616 257.101 52.6106L258.565 53.9734C259.501 52.9679 260.708 52.4512 262.276 52.4512V50.4512ZM257.095 52.6174C255.793 54.0417 255.019 56.0128 254.684 58.423L256.665 58.6981C256.965 56.538 257.63 54.9967 258.571 53.9666L257.095 52.6174ZM255.675 59.5605H268.434V57.5605H255.675V59.5605ZM269.434 58.5605V57.8306H267.434V58.5605H269.434ZM269.433 57.8097C269.388 55.6122 268.787 53.7747 267.504 52.4402L266.062 53.8264C266.895 54.6925 267.395 55.9864 267.434 57.8514L269.433 57.8097ZM267.511 52.4471C266.217 51.0756 264.421 50.4512 262.276 50.4512V52.4512C264.024 52.4512 265.234 52.9481 266.056 53.8195L267.511 52.4471ZM303.377 44.6592V43.6592H302.782L302.499 44.1822L303.377 44.6592ZM312.55 44.6592H313.55V43.6592H312.55V44.6592ZM312.55 79V80H313.55V79H312.55ZM303.377 79H302.377V80H303.377V79ZM303.377 57.7988H304.377L302.498 57.3224L303.377 57.7988ZM291.888 79V80H292.484L292.767 79.4765L291.888 79ZM282.684 79H281.684V80H282.684V79ZM282.684 44.6592V43.6592H281.684V44.6592H282.684ZM291.888 44.6592H292.888V43.6592H291.888V44.6592ZM291.888 65.8286H290.888L292.767 66.3056L291.888 65.8286ZM308.773 30.7261H309.773V29.7261H308.773V30.7261ZM305.726 37.5498L305.077 36.7894L305.073 36.7928L305.726 37.5498ZM289.825 37.5815L289.176 38.3425L289.18 38.3458L289.825 37.5815ZM286.81 30.7261V29.7261H285.81V30.7261H286.81ZM293.316 30.7261H294.316V29.7261H293.316V30.7261ZM294.491 33.8364L293.804 34.5629L293.814 34.5724L293.824 34.5817L294.491 33.8364ZM301.029 33.8364L301.705 34.5728L301.711 34.5679L301.716 34.5629L301.029 33.8364ZM302.203 30.7261V29.7261H301.203V30.7261H302.203ZM303.377 45.6592H312.55V43.6592H303.377V45.6592ZM311.55 44.6592V79H313.55V44.6592H311.55ZM312.55 78H303.377V80H312.55V78ZM304.377 79V57.7988H302.377V79H304.377ZM302.498 57.3224L291.009 78.5235L292.767 79.4765L304.257 58.2753L302.498 57.3224ZM291.888 78H282.684V80H291.888V78ZM283.684 79V44.6592H281.684V79H283.684ZM282.684 45.6592H291.888V43.6592H282.684V45.6592ZM290.888 44.6592V65.8286H292.888V44.6592H290.888ZM292.767 66.3056L304.256 45.1362L302.499 44.1822L291.009 65.3516L292.767 66.3056ZM307.773 30.7261C307.773 33.2655 306.872 35.2557 305.077 36.7894L306.376 38.3102C308.642 36.3739 309.773 33.8149 309.773 30.7261H307.773ZM305.073 36.7928C303.284 38.3367 300.89 39.1523 297.792 39.1523V41.1523C301.252 41.1523 304.148 40.233 306.379 38.3068L305.073 36.7928ZM297.792 39.1523C294.691 39.1523 292.282 38.3457 290.47 36.8173L289.18 38.3458C291.431 40.2451 294.333 41.1523 297.792 41.1523V39.1523ZM290.474 36.8206C288.707 35.3136 287.81 33.3167 287.81 30.7261H285.81C285.81 33.8484 286.924 36.4218 289.176 38.3425L290.474 36.8206ZM286.81 31.7261H293.316V29.7261H286.81V31.7261ZM292.316 30.7261C292.316 32.2643 292.775 33.5904 293.804 34.5629L295.178 33.11C294.64 32.6013 294.316 31.8539 294.316 30.7261H292.316ZM293.824 34.5817C294.86 35.5087 296.223 35.9155 297.792 35.9155V33.9155C296.567 33.9155 295.729 33.6029 295.158 33.0912L293.824 34.5817ZM297.792 35.9155C299.342 35.9155 300.689 35.5069 301.705 34.5728L300.352 33.1001C299.803 33.6048 298.992 33.9155 297.792 33.9155V35.9155ZM301.716 34.5629C302.744 33.5904 303.203 32.2643 303.203 30.7261H301.203C301.203 31.8539 300.879 32.6013 300.342 33.11L301.716 34.5629ZM302.203 31.7261H308.773V29.7261H302.203V31.7261Z" fill="black"/>
<path d="M55.9286 66.518C55.9286 66.518 55.9286 69.7023 55.9286 91.796M55.9286 66.518L5 105.144L55.9286 158V132.722C55.9286 132.722 186.049 148.463 302.969 132.722C419.888 116.981 322.758 16.5834 321.815 21.3983C320.872 26.2131 376.515 76.055 302.969 91.796C229.422 107.537 55.9286 91.796 55.9286 91.796M55.9286 66.518V91.796" stroke="black" stroke-width="6"/>
</svg>
