<svg width="17" height="17" viewBox="0 0 17 17" fill="none" xmlns="http://www.w3.org/2000/svg">
<path d="M16.0612 0H0.938286C0.420437 0 0 0.419598 0 0.938286V16.0612C0 16.5798 0.420437 17 0.938286 17H9.07999V10.4166H6.86472V7.85059H9.07999V5.95834C9.07999 3.76294 10.4205 2.56685 12.3794 2.56685C13.3185 2.56685 14.1238 2.63711 14.3587 2.66762V4.96239L13 4.96295C11.9349 4.96295 11.7294 5.46932 11.7294 6.21195V7.84975H14.2705L13.9383 10.4155H11.7291V16.9992H16.0609C16.5793 16.9992 17 16.5784 17 16.0612V0.937726C16.9997 0.419598 16.5796 0 16.0612 0Z" fill="white"/>
</svg>
