<svg width="25" height="25" viewBox="0 0 25 25" fill="none" xmlns="http://www.w3.org/2000/svg">
<path d="M23.3393 1.88245e-06H1.0505C0.657386 -0.000741718 0.296989 0.218867 0.117287 0.568606C-0.0648948 0.923054 -0.0329201 1.34988 0.199826 1.67359L8.36552 13.1766C8.36825 13.1805 8.37122 13.1842 8.37395 13.1882C8.67064 13.5888 8.83101 14.0738 8.832 14.5725V23.9508C8.83027 24.2286 8.93933 24.4953 9.13514 24.6924C9.33096 24.8895 9.59717 25 9.87478 25C10.0161 25 10.1556 24.9717 10.286 24.9177L14.8745 23.168C15.2857 23.0426 15.5586 22.6547 15.5586 22.1875V14.5725C15.5593 14.0741 15.7199 13.5888 16.0164 13.1882C16.0191 13.1842 16.0221 13.1805 16.0248 13.1766L24.1903 1.6731C24.423 1.34963 24.455 0.923054 24.2728 0.568606C24.0931 0.218867 23.7327 -0.000741718 23.3393 1.88245e-06ZM14.9932 12.4364C14.5371 13.0553 14.2905 13.8037 14.289 14.5725V22.0333L10.1011 23.63V14.5725C10.0996 13.8037 9.85296 13.0553 9.39664 12.4364L1.46915 1.26908H22.9209L14.9932 12.4364Z" fill="black"/>
</svg>
