<svg width="512" height="512" viewBox="0 0 512 512" fill="none" xmlns="http://www.w3.org/2000/svg">
<path d="M317.014 0C209.5 0 122.029 87.4702 122.029 194.985C122.029 243.355 139.74 287.663 169.01 321.778L148.482 342.305C131.76 334.339 111.103 337.262 97.2774 351.087L0 448.365L63.634 512L160.912 414.722C174.739 400.896 177.66 380.239 169.694 363.517L190.221 342.989C224.337 372.258 268.644 389.97 317.014 389.97C424.529 389.97 511.999 302.499 511.999 194.985C511.999 87.4702 424.53 0 317.014 0ZM139.701 393.51L63.634 469.577L42.4227 448.365L118.489 372.298C124.338 366.45 133.854 366.45 139.701 372.298C145.564 378.16 145.564 387.648 139.701 393.51ZM317.014 359.972C226.04 359.972 152.027 285.959 152.027 194.985C152.027 104.011 226.04 29.9977 317.014 29.9977C407.988 29.9977 482.001 104.011 482.001 194.985C482.001 285.959 407.989 359.972 317.014 359.972Z" fill="white"/>
<path d="M377.01 119.991C377.01 86.9092 350.096 59.9953 317.014 59.9953C283.933 59.9953 257.019 86.9092 257.019 119.991C257.019 153.072 283.933 179.986 317.014 179.986C350.096 179.986 377.01 153.072 377.01 119.991ZM317.014 149.988C300.474 149.988 287.017 136.531 287.017 119.991C287.017 103.45 300.474 89.993 317.014 89.993C333.555 89.993 347.012 103.45 347.012 119.991C347.012 136.531 333.555 149.988 317.014 149.988Z" fill="white"/>
<path d="M317.014 179.986C259.122 179.986 212.022 227.085 212.022 284.978V299.977H422.006V284.978C422.006 227.085 374.908 179.986 317.014 179.986ZM243.527 269.979C250.496 235.791 280.798 209.984 317.014 209.984C353.23 209.984 383.532 235.791 390.502 269.979H243.527Z" fill="white"/>
</svg>
