<svg width="296" height="296" viewBox="0 0 296 296" fill="none" xmlns="http://www.w3.org/2000/svg">
<g clip-path="url(#clip0)">
<path d="M147.998 0C66.392 0 0 66.392 0 147.998C0 229.604 66.392 295.996 147.998 295.996C229.604 295.996 295.996 229.604 295.996 147.998C295.996 66.392 229.605 0 147.998 0ZM147.998 279.996C111.741 279.996 78.855 265.3 54.975 241.556C45.439 232.074 37.344 221.146 31.041 209.136C21.442 190.847 16 170.047 16 147.998C16 75.214 75.214 16 147.998 16C182.521 16 213.985 29.328 237.531 51.102C249.739 62.39 259.82 75.946 267.089 91.098C275.359 108.337 279.996 127.636 279.996 147.998C279.996 220.782 220.782 279.996 147.998 279.996Z" fill="white"/>
<path d="M97.41 114.4C106.01 114.4 113.007 120.997 113.007 129.997H129.007C129.007 111.997 114.833 98.4 97.41 98.4C79.987 98.4 65.813 111.997 65.813 129.997H81.813C81.813 120.997 88.811 114.4 97.41 114.4Z" fill="white"/>
<path d="M198.584 114.4C207.184 114.4 214.181 120.997 214.181 129.997H230.181C230.181 111.997 216.007 98.4 198.584 98.4C181.161 98.4 166.987 111.997 166.987 129.997H182.987C182.987 120.997 189.984 114.4 198.584 114.4Z" fill="white"/>
<path d="M147.715 229.995C178.669 229.995 208.334 214.165 225.319 187.882L211.88 179.198C196.284 203.333 167.746 216.803 139.187 213.506C116.925 210.939 96.338 198.113 84.115 179.198L70.677 187.882C85.467 210.771 110.393 226.291 137.353 229.4C140.814 229.8 144.27 229.995 147.715 229.995Z" fill="white"/>
</g>
<defs>
<clipPath id="clip0">
<rect width="295.996" height="295.996" fill="white"/>
</clipPath>
</defs>
</svg>
