<svg width="17" height="17" viewBox="0 0 17 17" fill="none" xmlns="http://www.w3.org/2000/svg">
<g clip-path="url(#clip0)">
<path d="M16.9834 4.99805C16.9435 4.09477 16.7975 3.47378 16.5882 2.93568C16.3724 2.3645 16.0403 1.85312 15.6052 1.42801C15.1801 0.996288 14.6653 0.660819 14.1007 0.44833C13.5595 0.239083 12.9418 0.0930128 12.0385 0.0531873C11.1285 0.00998882 10.8396 0 8.53151 0C6.22344 0 5.93455 0.00998882 5.0279 0.0498144C4.12462 0.08964 3.50363 0.23584 2.96566 0.444957C2.39435 0.660819 1.88297 0.992916 1.45786 1.42801C1.02614 1.85312 0.690796 2.36787 0.478176 2.93243C0.26893 3.47378 0.122859 4.0914 0.0830335 4.99467C0.039835 5.90469 0.0298462 6.19359 0.0298462 8.50166C0.0298462 10.8097 0.039835 11.0986 0.0796606 12.0053C0.119486 12.9085 0.265686 13.5295 0.474933 14.0676C0.690796 14.6388 1.02614 15.1502 1.45786 15.5753C1.88297 16.007 2.39772 16.3425 2.96228 16.555C3.50363 16.7642 4.12125 16.9103 5.02465 16.9501C5.93117 16.9901 6.2202 16.9999 8.52827 16.9999C10.8363 16.9999 11.1252 16.9901 12.0319 16.9501C12.9352 16.9103 13.5562 16.7642 14.0941 16.555C15.2366 16.1133 16.1399 15.21 16.5816 14.0676C16.7907 13.5263 16.9369 12.9085 16.9767 12.0053C17.0166 11.0986 17.0266 10.8097 17.0266 8.50166C17.0266 6.19359 17.0232 5.90469 16.9834 4.99805ZM15.4525 11.9389C15.4159 12.7691 15.2764 13.2174 15.1602 13.5163C14.8746 14.2569 14.2868 14.8447 13.5462 15.1304C13.2473 15.2466 12.7957 15.386 11.9687 15.4225C11.0721 15.4624 10.8031 15.4723 8.53489 15.4723C6.26664 15.4723 5.99435 15.4624 5.10093 15.4225C4.27069 15.386 3.82236 15.2466 3.52347 15.1304C3.15492 14.9941 2.81946 14.7783 2.54716 14.496C2.26488 14.2203 2.04902 13.8882 1.91281 13.5197C1.79657 13.2208 1.65712 12.7691 1.62067 11.9422C1.58071 11.0456 1.57085 10.7765 1.57085 8.50828C1.57085 6.24003 1.58071 5.96774 1.62067 5.07445C1.65712 4.24421 1.79657 3.79588 1.91281 3.497C2.04902 3.12832 2.26488 2.79298 2.55054 2.52056C2.82607 2.23828 3.15817 2.02241 3.52685 1.88633C3.82573 1.7701 4.27744 1.63064 5.1043 1.59406C6.00096 1.55424 6.27001 1.54425 8.53813 1.54425C10.8097 1.54425 11.0787 1.55424 11.9721 1.59406C12.8023 1.63064 13.2507 1.7701 13.5495 1.88633C13.9181 2.02241 14.2536 2.23828 14.5259 2.52056C14.8081 2.79622 15.024 3.12832 15.1602 3.497C15.2764 3.79588 15.4159 4.24746 15.4525 5.07445C15.4923 5.97111 15.5023 6.24003 15.5023 8.50828C15.5023 10.7765 15.4923 11.0422 15.4525 11.9389Z" fill="white"/>
<path d="M8.53155 4.13461C6.12061 4.13461 4.16449 6.09061 4.16449 8.50168C4.16449 10.9127 6.12061 12.8687 8.53155 12.8687C10.9426 12.8687 12.8986 10.9127 12.8986 8.50168C12.8986 6.09061 10.9426 4.13461 8.53155 4.13461ZM8.53155 11.3345C6.96746 11.3345 5.69875 10.0659 5.69875 8.50168C5.69875 6.93745 6.96746 5.66887 8.53155 5.66887C10.0958 5.66887 11.3644 6.93745 11.3644 8.50168C11.3644 10.0659 10.0958 11.3345 8.53155 11.3345V11.3345Z" fill="white"/>
<path d="M14.0909 3.96192C14.0909 4.52493 13.6344 4.98143 13.0713 4.98143C12.5083 4.98143 12.0518 4.52493 12.0518 3.96192C12.0518 3.39879 12.5083 2.94241 13.0713 2.94241C13.6344 2.94241 14.0909 3.39879 14.0909 3.96192V3.96192Z" fill="white"/>
</g>
<defs>
<clipPath id="clip0">
<rect width="17" height="17" fill="white"/>
</clipPath>
</defs>
</svg>
