<svg width="177" height="65" viewBox="0 0 177 65" fill="none" xmlns="http://www.w3.org/2000/svg">
<path d="M13.2691 25.4711C12.9907 25.3319 12.7123 25.2855 12.434 25.2855C12.0628 25.2855 11.4133 25.4247 11.0421 26.3062L7.1449 35.8173L3.15489 26.3062C2.92291 25.6567 2.41256 25.2855 1.76303 25.2855C1.48465 25.2855 1.20628 25.3319 0.927909 25.4711C0.139186 25.8422 0 26.4454 0 26.8165C0 27.0485 0.0463954 27.2805 0.185582 27.5589L5.47466 40.0856C5.93862 41.0599 6.63455 41.1991 7.00571 41.1991H7.0985C7.51606 41.1991 8.25839 41.0599 8.72234 40.0856L14.0578 27.5125C14.1506 27.2805 14.197 27.0485 14.197 26.8165C14.197 26.2598 13.8722 25.7494 13.2691 25.4711Z" fill="#333333"/>
<path d="M25.8423 28.5332C26.4454 28.5332 26.8166 28.3012 27.0021 28.0692C27.1877 27.8836 27.4661 27.5125 27.4661 26.9093C27.4661 26.3062 27.2341 25.935 27.0021 25.7494C26.8166 25.5639 26.4454 25.2855 25.8423 25.2855H18.187C17.5839 25.2855 17.2127 25.5175 17.0271 25.7494C16.8415 25.935 16.5632 26.3062 16.5632 26.9093V39.6217C16.5632 40.2248 16.7951 40.596 17.0271 40.7816C17.2127 40.9671 17.5839 41.2455 18.187 41.2455H25.8886C26.4918 41.2455 26.863 41.0135 27.0485 40.7816C27.2341 40.596 27.5125 40.2248 27.5125 39.6217C27.5125 39.0185 27.2805 38.6474 27.0485 38.4618C26.863 38.2762 26.4918 37.9978 25.8886 37.9978H19.7645V34.7966H23.2905C23.8936 34.7966 24.2648 34.5646 24.4504 34.3326C24.636 34.147 24.9143 33.7759 24.9143 33.1727C24.9143 32.5696 24.6824 32.1984 24.4504 32.0128C24.2648 31.8272 23.8936 31.5489 23.2905 31.5489H19.7645V28.4868H25.8423V28.5332Z" fill="#333333"/>
<path d="M38.9722 37.9978H33.7759V26.9093C33.7759 25.935 33.1727 25.2855 32.152 25.2855C31.1777 25.2855 30.5282 25.8886 30.5282 26.9093V39.6217C30.5282 40.596 31.1313 41.2455 32.152 41.2455H38.9722C39.9465 41.2455 40.596 40.6424 40.596 39.6217C40.596 38.6474 39.9929 37.9978 38.9722 37.9978Z" fill="#333333"/>
<path d="M50.339 25.2855H47.7873C45.9779 25.2855 44.586 25.7031 43.6581 26.631C42.7302 27.5589 42.2662 28.9507 42.2662 30.7602V35.7245C42.2662 37.5339 42.7302 38.9257 43.6581 39.8537C44.586 40.7816 45.9779 41.2455 47.7873 41.2455H50.339C52.1485 41.2455 53.5403 40.7816 54.4682 39.8537C55.3962 38.9257 55.8601 37.5339 55.8601 35.7245V30.8065C55.8601 28.9971 55.3962 27.6053 54.4682 26.6774C53.5403 25.7494 52.1485 25.2855 50.339 25.2855ZM45.4675 30.7602C45.4675 29.925 45.6067 29.4611 45.6995 29.2291C45.7923 28.9507 45.9779 28.8115 46.2562 28.6724C46.4882 28.5796 46.8594 28.4868 47.6017 28.4868C47.6481 28.4868 47.6945 28.4868 47.7409 28.4868H50.2927C51.1278 28.4868 51.5917 28.626 51.8237 28.7188C52.1021 28.8115 52.2413 28.9971 52.3804 29.2755C52.4732 29.5075 52.6124 29.9714 52.6124 30.8065V35.7245C52.6124 36.5596 52.4732 37.0235 52.3804 37.2555C52.2877 37.5339 52.1021 37.6731 51.8237 37.8123C51.5917 37.905 51.1742 38.0442 50.2927 38.0442H47.7873C46.9522 38.0442 46.4882 37.905 46.2562 37.8123C45.9779 37.7195 45.8387 37.5339 45.6995 37.2555C45.6067 37.0235 45.4675 36.5596 45.4675 35.7245V30.7602Z" fill="#333333"/>
<path d="M66.8558 31.4561H64.2113C63.5617 31.4561 63.2834 31.3633 63.1442 31.3169C63.005 31.2705 62.9122 31.1777 62.8658 31.0385C62.8194 30.8994 62.7266 30.5746 62.7266 29.9714C62.7266 29.3683 62.8194 29.0899 62.8658 28.9044C62.9122 28.7652 63.005 28.7188 63.0978 28.626C63.237 28.5796 63.5154 28.4868 64.1649 28.4868H66.7166C67.4126 28.4868 67.7373 28.5796 67.8301 28.626C67.8765 28.6724 68.0157 28.7188 68.1085 28.9971C68.1549 29.4147 68.3405 29.7859 68.5725 30.0178C68.8508 30.2962 69.222 30.4354 69.7323 30.4354C70.2427 30.4354 70.6602 30.2962 70.9386 29.9714C71.1706 29.7395 71.4026 29.3219 71.3098 28.6724V28.626C71.0314 27.0485 70.0107 25.1927 66.7166 25.1927H64.1649C62.6338 25.1927 61.474 25.6103 60.6852 26.399C59.8965 27.1877 59.4789 28.3476 59.4789 29.8787C59.4789 31.4097 59.8965 32.616 60.6852 33.4047C61.474 34.1934 62.6802 34.611 64.2113 34.611H66.8558C67.7837 34.611 68.1085 34.843 68.2013 34.9358C68.2941 35.0286 68.5261 35.3533 68.5261 36.3276C68.5261 36.9772 68.4333 37.3019 68.3869 37.4875C68.2941 37.6731 68.2013 37.7659 68.0621 37.8123C67.8765 37.9051 67.5518 37.9515 66.9022 37.9515H63.8401C63.005 37.9515 62.6802 37.8123 62.5411 37.7659C62.4947 37.7195 62.3091 37.6267 62.2163 37.2555C62.1235 36.7916 61.9843 36.4204 61.7059 36.1884C61.4276 35.9101 61.0564 35.7709 60.5924 35.7709C59.9893 35.7709 59.5717 36.0029 59.3862 36.2348C59.1542 36.4668 58.9222 36.838 59.015 37.4875V37.5339C59.2006 38.7402 59.7573 39.6681 60.5924 40.2712C61.3812 40.8744 62.4947 41.1527 63.8865 41.1527H66.9486C68.5725 41.1527 69.7787 40.7352 70.6139 39.9465C71.449 39.1113 71.8665 37.9051 71.8665 36.2812C71.8665 34.6574 71.449 33.4047 70.6139 32.616C69.6859 31.8737 68.4333 31.4561 66.8558 31.4561Z" fill="#333333"/>
<path d="M85.9707 26.9093C85.9707 25.935 85.3676 25.2855 84.3469 25.2855H74.2327C73.2584 25.2855 72.6089 25.8886 72.6089 26.9093C72.6089 27.8836 73.212 28.5332 74.2327 28.5332H77.666V39.6217C77.666 40.596 78.2691 41.2455 79.2898 41.2455C79.8929 41.2455 80.2641 41.0135 80.4497 40.7816C80.6353 40.596 80.9136 40.2248 80.9136 39.6217V28.5332H84.3469C85.3676 28.5332 85.9707 27.93 85.9707 26.9093Z" fill="#333333"/>
<path d="M94.0435 26.4454C93.7652 25.7494 93.2084 25.3319 92.4661 25.2855H92.3733C91.631 25.2855 91.0278 25.7031 90.7031 26.399L85.5996 38.9721C85.5068 39.2041 85.4604 39.4361 85.4604 39.6681C85.4604 40.3176 85.8316 40.828 86.5275 41.1063C86.7595 41.1991 86.945 41.2455 87.177 41.2455C87.8266 41.2455 88.3369 40.8744 88.6153 40.2248L89.5432 37.8587H95.2498L96.2241 40.2248C96.5025 40.8744 97.0129 41.2455 97.616 41.2455C97.8944 41.2455 98.1263 41.1991 98.3119 41.1063C98.9615 40.828 99.3326 40.3176 99.3326 39.7145C99.3326 39.4361 99.2862 39.2041 99.1934 39.0185L94.0435 26.4454ZM93.9044 34.611H90.7959L92.3269 30.7602L93.9044 34.611Z" fill="#333333"/>
<path d="M114.829 25.7494C114.643 25.5639 114.272 25.2855 113.669 25.2855C113.066 25.2855 112.695 25.5175 112.509 25.7494C112.323 25.935 112.045 26.3062 112.045 26.9093V34.9821L105.178 26.1206V26.0742C104.993 25.8422 104.761 25.6567 104.575 25.5175C104.343 25.3783 104.019 25.2855 103.74 25.2855C103.137 25.2855 102.766 25.5175 102.58 25.7494C102.395 25.935 102.116 26.3062 102.116 26.9093V39.6217C102.116 40.2248 102.348 40.596 102.58 40.7816C102.766 40.9671 103.137 41.2455 103.74 41.2455C104.343 41.2455 104.714 41.0135 104.9 40.7816C105.086 40.596 105.364 40.2248 105.364 39.6217V31.5489L112.231 40.4104C112.416 40.6888 112.648 40.8744 112.88 41.0135C113.112 41.1527 113.437 41.2455 113.715 41.2455C114.318 41.2455 114.69 41.0135 114.875 40.7816C115.061 40.596 115.339 40.2248 115.339 39.6217V26.9093C115.293 26.3062 115.061 25.935 114.829 25.7494Z" fill="#333333"/>
<path d="M126.149 25.2855H120.999C120.396 25.2855 120.025 25.5175 119.839 25.7494C119.654 25.935 119.375 26.3062 119.375 26.9093V39.6217C119.375 40.2248 119.607 40.596 119.839 40.7816C120.025 40.9671 120.396 41.2455 120.999 41.2455H126.149C128.191 41.2455 129.768 40.7352 130.789 39.7145C131.809 38.6938 132.32 37.1627 132.32 35.0749V31.4561C132.32 29.4147 131.809 27.8372 130.789 26.8165C129.768 25.7958 128.191 25.2855 126.149 25.2855ZM129.072 35.0749C129.072 35.91 128.979 36.5132 128.794 36.9771C128.655 37.3483 128.376 37.5803 128.051 37.7195C127.634 37.9051 126.984 37.9978 126.149 37.9978H122.623V28.5332H126.149C126.984 28.5332 127.587 28.626 128.051 28.8115C128.423 28.9507 128.655 29.2291 128.794 29.5539C128.979 29.9714 129.072 30.621 129.072 31.4561V35.0749Z" fill="#333333"/>
<path d="M142.944 26.4454C142.666 25.7494 142.109 25.3319 141.367 25.2855H141.274C140.532 25.2855 139.929 25.7031 139.604 26.399L134.547 38.9721C134.454 39.2041 134.408 39.4361 134.408 39.6681C134.408 40.3176 134.779 40.828 135.475 41.1063C135.707 41.1991 135.892 41.2455 136.124 41.2455C136.774 41.2455 137.284 40.8744 137.562 40.2248L138.49 37.8587H144.197L145.171 40.2248C145.45 40.8744 145.96 41.2455 146.563 41.2455C146.842 41.2455 147.074 41.1991 147.259 41.1063C147.909 40.828 148.28 40.3176 148.28 39.7145C148.28 39.4361 148.233 39.2041 148.141 39.0185L142.944 26.4454ZM142.852 34.611H139.743L141.274 30.7602L142.852 34.611Z" fill="#333333"/>
<path d="M157.652 25.2855H152.641C152.038 25.2855 151.667 25.5175 151.481 25.7494C151.296 25.935 151.017 26.3062 151.017 26.9093V39.6217C151.017 40.2248 151.249 40.596 151.481 40.7816C151.667 40.9671 152.038 41.2455 152.641 41.2455C153.244 41.2455 153.615 41.0135 153.801 40.7816C153.986 40.596 154.265 40.2248 154.265 39.6217V35.4461H156.121L159.229 40.6424C159.647 41.2919 160.203 41.4311 160.575 41.4311C160.853 41.4311 161.131 41.3383 161.41 41.1527C161.92 40.828 162.245 40.364 162.245 39.8073C162.245 39.4825 162.152 39.2041 162.013 38.9721L159.693 35.1213C160.389 34.8429 160.992 34.4254 161.456 33.8223C162.059 33.0335 162.384 31.9664 162.384 30.6674V30.0178C162.384 28.5332 161.966 27.3269 161.131 26.4918C160.296 25.7031 159.136 25.2855 157.652 25.2855ZM159.183 30.7138C159.183 31.3169 159.09 31.7345 158.858 31.92C158.672 32.1056 158.208 32.2448 157.652 32.2448H154.265V28.5332H157.652C158.255 28.5332 158.672 28.626 158.858 28.8579C159.044 29.0435 159.183 29.5075 159.183 30.0642V30.7138Z" fill="#333333"/>
<path d="M175.143 25.2855H165.029C164.054 25.2855 163.405 25.8886 163.405 26.9093C163.405 27.8836 164.008 28.5332 165.029 28.5332H168.462V39.6217C168.462 40.596 169.065 41.2455 170.086 41.2455C170.689 41.2455 171.06 41.0135 171.246 40.7816C171.431 40.596 171.71 40.2248 171.71 39.6217V28.5332H175.143C176.117 28.5332 176.767 27.93 176.767 26.9093C176.767 25.935 176.163 25.2855 175.143 25.2855Z" fill="#333333"/>
<path d="M97.9408 6.95931C97.2912 6.95931 96.6417 7.05211 95.9922 7.23769L93.626 1.57744H97.4304V0H92.4661C92.1877 0 91.9558 0.139186 91.8166 0.324768C91.6774 0.556745 91.631 0.835118 91.7238 1.06709L92.8837 3.80443H84.2077L83.1406 1.57744C83.0014 1.29907 82.7231 1.11349 82.4447 1.11349H79.8002V2.69094H81.9807L82.6767 4.17559L82.6303 4.22198L81.192 7.33048C80.4497 7.05211 79.661 6.91292 78.8722 6.91292C75.0678 6.91292 71.9129 10.0214 71.9129 13.8722C71.9129 17.7231 75.0214 20.8315 78.8722 20.8315C82.3519 20.8315 85.2284 18.2334 85.7388 14.8929H86.2955C86.5739 15.8672 87.4554 16.6096 88.5225 16.6096C89.8216 16.6096 90.8423 15.5425 90.8423 14.2898C90.8423 14.0114 90.7959 13.7794 90.7031 13.5011L91.1206 12.5732C91.0278 12.9907 90.9815 13.4083 90.9815 13.8722C90.9815 17.6767 94.0899 20.8315 97.9408 20.8315C101.745 20.8315 104.9 17.7231 104.9 13.8722C104.9 10.0214 101.745 6.95931 97.9408 6.95931ZM78.8258 19.2541C75.8565 19.2541 73.444 16.8415 73.444 13.8722C73.444 10.9029 75.8565 8.49036 78.8258 8.49036C79.429 8.49036 79.9857 8.58315 80.4961 8.76874L78.6403 12.666C77.9907 12.7587 77.5268 13.2691 77.5268 13.965C77.5268 14.661 78.0835 15.2641 78.8258 15.2641C79.1506 15.2641 79.4754 15.1249 79.7074 14.9393H84.1149C83.651 17.3983 81.4704 19.2541 78.8258 19.2541ZM80.0785 13.3619L81.8879 9.46467C83.1406 10.3462 84.0221 11.738 84.2077 13.3619H80.0785ZM88.4761 15.0785C88.0585 15.0785 87.6874 14.7074 87.6874 14.2898C87.6874 13.8722 88.0585 13.5011 88.4761 13.5011C88.8937 13.5011 89.2648 13.8722 89.2648 14.2898C89.2648 14.7074 88.9401 15.0785 88.4761 15.0785ZM89.5896 12.2484C89.2648 12.0628 88.8937 11.97 88.5225 11.97C87.5482 11.97 86.7595 12.5268 86.3883 13.3619H85.7852C85.5996 11.1349 84.3933 9.18629 82.5839 8.0728L83.5582 6.03141L86.2491 11.6916L87.641 11.0421L84.95 5.42827H92.7909L89.5896 12.2484ZM93.9972 6.49536L94.5539 7.84083C93.8116 8.25839 93.1156 8.81513 92.6053 9.46467L93.9972 6.49536ZM97.9408 19.2541C94.9715 19.2541 92.5589 16.8415 92.5589 13.8722C92.5589 11.9236 93.626 10.207 95.157 9.27909L96.8273 13.2227C96.7345 13.4083 96.6417 13.6403 96.6417 13.8722C96.6417 14.5682 97.1984 15.1713 97.9408 15.1713C98.6367 15.1713 99.2398 14.6146 99.2398 13.8722C99.2398 13.2691 98.8223 12.7587 98.2655 12.6196L96.5953 8.67595C97.0129 8.58315 97.4768 8.49036 97.9408 8.49036C100.91 8.49036 103.323 10.9029 103.323 13.8722C103.323 16.8415 100.91 19.2541 97.9408 19.2541Z" fill="#FFCC01"/>
<path d="M90.2391 17.1663H87.5946V18.7438H90.2391V17.1663Z" fill="#FFCC01"/>
<path d="M18.883 20.8315V13.1299H64.2113V11.2741H17.0271V20.8315H18.883Z" fill="#FFCC01"/>
<path d="M157.976 20.8315H159.832V11.2741H112.555V13.1299H157.976V20.8315Z" fill="#FFCC01"/>
<path d="M157.976 45.6995V63.1442H18.883V45.6995H17.0271V65H159.832V45.6995H157.976Z" fill="#FFCC01"/>
<path d="M33.5439 47.9729C33.5439 47.8337 33.5903 47.7409 33.6831 47.6481C33.7759 47.5553 33.8687 47.5089 34.0078 47.5089C34.147 47.5089 34.2862 47.5553 34.3326 47.6481C34.4254 47.7409 34.4718 47.8337 34.4718 47.9729C34.4718 48.1121 34.4254 48.2049 34.3326 48.2977C34.2398 48.3905 34.147 48.4369 34.0078 48.4369C33.8687 48.4369 33.7295 48.3905 33.6831 48.2977C33.6367 48.2049 33.5439 48.1121 33.5439 47.9729ZM34.3326 55.9065H33.6367V49.7359H34.3326V55.9065Z" fill="#888888"/>
<path d="M42.0807 55.9065H41.3847V53.0764H38.0906V55.9065H37.3947V49.7359H38.0906V52.4732H41.3847V49.7359H42.0807V55.9065Z" fill="#888888"/>
<path d="M49.4575 50.339H47.2305V55.9065H46.5346V50.339H44.4004V49.7359H49.4575V50.339Z" fill="#888888"/>
<path d="M53.6795 55.9993C53.1692 55.9993 52.7052 55.8601 52.2412 55.6281C51.8237 55.3498 51.4989 55.025 51.2669 54.561C51.035 54.0971 50.8958 53.5867 50.8958 53.03V52.798C50.8958 52.1949 50.9886 51.6845 51.2206 51.2206C51.4525 50.7566 51.7773 50.3854 52.1949 50.1071C52.6124 49.8287 53.03 49.6895 53.5403 49.6895C54.2826 49.6895 54.8858 49.9215 55.3033 50.4318C55.7209 50.9422 55.9529 51.6381 55.9529 52.5196V52.8908H51.5453V53.03C51.5453 53.7259 51.7309 54.3291 52.1485 54.793C52.566 55.257 53.03 55.4889 53.6795 55.4889C54.0507 55.4889 54.3754 55.4425 54.6538 55.3034C54.9322 55.1642 55.1642 54.9786 55.3961 54.6538L55.8137 54.9786C55.3497 55.6745 54.6538 55.9993 53.6795 55.9993ZM53.5403 50.1999C53.03 50.1999 52.6124 50.3854 52.2412 50.7566C51.8701 51.1278 51.6845 51.6381 51.5917 52.2877H55.3033V52.1949C55.3033 51.5917 55.1178 51.1278 54.793 50.7566C54.5146 50.3854 54.0971 50.1999 53.5403 50.1999Z" fill="#888888"/>
<path d="M63.4226 52.8908C63.4226 53.8651 63.1906 54.6074 62.773 55.1642C62.3555 55.7209 61.7987 55.9993 61.0564 55.9993C60.2213 55.9993 59.5717 55.7209 59.1078 55.1178V58.2727H58.4582V49.7359H59.1078L59.1542 50.6174C59.6181 49.9679 60.2213 49.6431 61.1028 49.6431C61.8451 49.6431 62.4019 49.9215 62.8194 50.4782C63.237 51.035 63.469 51.8237 63.469 52.798V52.8908H63.4226ZM62.773 52.7516C62.773 51.9629 62.6338 51.3597 62.3091 50.8958C61.9843 50.4318 61.5203 50.1999 60.9636 50.1999C60.546 50.1999 60.1749 50.2926 59.8965 50.5246C59.6181 50.7102 59.3862 51.035 59.2006 51.4061V54.3754C59.3862 54.7466 59.6181 54.9786 59.8965 55.1642C60.1749 55.3498 60.546 55.4425 60.9636 55.4425C61.5203 55.4425 61.9843 55.2106 62.3091 54.7466C62.5874 54.2827 62.773 53.6331 62.773 52.7516Z" fill="#888888"/>
<path d="M70.8458 55.9065H70.1499V53.0764H66.8558V55.9065H66.1599V49.7359H66.8558V52.4732H70.1499V49.7359H70.8458V55.9065Z" fill="#888888"/>
<path d="M76.1813 55.9993C75.6709 55.9993 75.207 55.8601 74.743 55.6281C74.3255 55.3498 74.0007 55.025 73.7687 54.561C73.5368 54.0971 73.3976 53.5867 73.3976 53.03V52.798C73.3976 52.1949 73.4904 51.6845 73.7223 51.2206C73.9543 50.7566 74.2791 50.3854 74.6966 50.1071C75.1142 49.8287 75.5318 49.6895 76.0421 49.6895C76.7844 49.6895 77.3876 49.9215 77.8051 50.4318C78.2227 50.9422 78.4547 51.6381 78.4547 52.5196V52.8908H74.0471V53.03C74.0471 53.7259 74.2327 54.3291 74.6502 54.793C75.0678 55.257 75.5318 55.4889 76.1813 55.4889C76.5525 55.4889 76.8772 55.4425 77.1556 55.3034C77.434 55.1642 77.6659 54.9786 77.8979 54.6538L78.3155 54.9786C77.8979 55.6745 77.1556 55.9993 76.1813 55.9993ZM76.0885 50.1999C75.5782 50.1999 75.1606 50.3854 74.7894 50.7566C74.4183 51.1278 74.2327 51.6381 74.1399 52.2877H77.8515V52.1949C77.8515 51.5917 77.6659 51.1278 77.3412 50.7566C77.0164 50.3854 76.5989 50.1999 76.0885 50.1999Z" fill="#888888"/>
<path d="M85.3676 50.339H83.1406V55.9065H82.4447V50.339H80.2641V49.7359H85.3676V50.339Z" fill="#888888"/>
<path d="M89.7288 52.5196H86.9914V51.9629H89.7288V52.5196Z" fill="#888888"/>
<path d="M95.5282 54.9786L97.9871 49.7359H98.8223V55.9065H98.1263V50.8494L95.7602 55.9065H95.2962L92.8836 50.7566V55.9065H92.1877V49.7359H93.0692L95.5282 54.9786Z" fill="#888888"/>
<path d="M105.689 55.9065C105.642 55.7209 105.596 55.4426 105.55 55.025C105.318 55.3498 104.993 55.5817 104.622 55.7209C104.251 55.9065 103.879 55.9529 103.462 55.9529C102.859 55.9529 102.395 55.7673 102.024 55.4426C101.652 55.1178 101.467 54.7002 101.467 54.1899C101.467 53.5867 101.699 53.1228 102.209 52.7516C102.719 52.3805 103.415 52.2413 104.297 52.2413H105.55V51.5453C105.55 51.1278 105.41 50.7566 105.132 50.5246C104.854 50.2927 104.483 50.1535 103.926 50.1535C103.462 50.1535 103.044 50.2927 102.766 50.5246C102.441 50.7566 102.302 51.0814 102.302 51.4062H101.606C101.606 50.8958 101.838 50.4783 102.302 50.1535C102.766 49.8287 103.323 49.5967 103.972 49.5967C104.668 49.5967 105.178 49.7823 105.596 50.1071C106.014 50.4319 106.199 50.9422 106.199 51.5453V54.4683C106.199 55.0714 106.246 55.489 106.385 55.8137V55.8601H105.689V55.9065ZM103.555 55.3962C104.019 55.3962 104.436 55.3034 104.761 55.0714C105.132 54.8394 105.364 54.5611 105.55 54.1899V52.8444H104.343C103.647 52.8444 103.137 52.9836 102.766 53.2156C102.395 53.4476 102.209 53.7723 102.209 54.1899C102.209 54.5147 102.348 54.8394 102.58 55.0714C102.812 55.3034 103.137 55.3962 103.555 55.3962Z" fill="#888888"/>
<path d="M113.066 50.339H109.957V55.9065H109.261V49.7359H113.066V50.339Z" fill="#888888"/>
<path d="M119.19 55.9065C119.143 55.7209 119.097 55.4426 119.051 55.025C118.819 55.3498 118.494 55.5817 118.123 55.7209C117.752 55.9065 117.38 55.9529 116.963 55.9529C116.36 55.9529 115.896 55.7673 115.525 55.4426C115.153 55.1178 114.968 54.7002 114.968 54.1899C114.968 53.5867 115.2 53.1228 115.71 52.7516C116.221 52.3805 116.916 52.2413 117.798 52.2413H119.051V51.5453C119.051 51.1278 118.911 50.7566 118.633 50.5246C118.355 50.2927 117.984 50.1535 117.427 50.1535C116.963 50.1535 116.545 50.2927 116.267 50.5246C115.942 50.7566 115.803 51.0814 115.803 51.4062H115.107C115.107 50.8958 115.339 50.4783 115.803 50.1535C116.267 49.8287 116.824 49.5967 117.473 49.5967C118.169 49.5967 118.68 49.7823 119.097 50.1071C119.515 50.4319 119.7 50.9422 119.7 51.5453V54.4683C119.7 55.0714 119.747 55.489 119.886 55.8137V55.8601H119.19V55.9065ZM117.056 55.3962C117.52 55.3962 117.937 55.3034 118.262 55.0714C118.633 54.8394 118.865 54.5611 119.051 54.1899V52.8444H117.844C117.148 52.8444 116.638 52.9836 116.267 53.2156C115.896 53.4476 115.71 53.7723 115.71 54.1899C115.71 54.5147 115.849 54.8394 116.081 55.0714C116.313 55.3034 116.638 55.3962 117.056 55.3962Z" fill="#888888"/>
<path d="M126.288 51.3598C126.288 50.9886 126.149 50.7102 125.871 50.4783C125.592 50.2927 125.221 50.1999 124.711 50.1999C124.293 50.1999 123.876 50.2927 123.597 50.5246C123.273 50.7566 123.133 51.035 123.133 51.3598H122.484C122.484 50.8494 122.716 50.4319 123.133 50.1071C123.551 49.7823 124.108 49.5967 124.757 49.5967C125.453 49.5967 126.01 49.7359 126.428 50.0607C126.799 50.3855 127.031 50.803 127.031 51.3598C127.031 51.6381 126.938 51.9165 126.752 52.1485C126.567 52.3805 126.288 52.566 125.964 52.7052C126.752 52.9372 127.123 53.4012 127.123 54.1899C127.123 54.7466 126.892 55.1642 126.474 55.489C126.056 55.8137 125.5 55.9529 124.757 55.9529C124.061 55.9529 123.505 55.7673 123.041 55.4426C122.577 55.1178 122.345 54.6538 122.345 54.0971H123.041C123.041 54.4683 123.226 54.793 123.551 55.025C123.876 55.257 124.293 55.3962 124.757 55.3962C125.268 55.3962 125.685 55.3034 125.964 55.0714C126.242 54.8394 126.428 54.5611 126.428 54.1899C126.428 53.7723 126.288 53.494 126.01 53.3084C125.732 53.1228 125.314 53.03 124.757 53.03H123.829V52.4269H124.897C125.824 52.4269 126.288 52.1021 126.288 51.3598Z" fill="#888888"/>
<path d="M133.804 49.7359H134.5V55.9065H133.804V50.8494L130.464 55.9065H129.768V49.7359H130.464V54.793L133.804 49.7359Z" fill="#888888"/>
<path d="M142.202 55.9065H141.506V53.0764H138.212V55.9065H137.516V49.7359H138.212V52.4732H141.506V49.7359H142.202V55.9065Z" fill="#888888"/>
</svg>
