<svg width="512" height="366" viewBox="0 0 512 366" fill="none" xmlns="http://www.w3.org/2000/svg">
<g clip-path="url(#clip0)">
<path d="M119.467 264.067C91.23 264.067 68.267 287.03 68.267 315.267C68.267 343.504 91.23 366.467 119.467 366.467C147.704 366.467 170.667 343.504 170.667 315.267C170.667 287.03 147.703 264.067 119.467 264.067ZM119.467 349.4C100.642 349.4 85.334 334.091 85.334 315.267C85.334 296.442 100.643 281.134 119.467 281.134C138.291 281.134 153.6 296.443 153.6 315.267C153.6 334.091 138.291 349.4 119.467 349.4Z" fill="white"/>
<path d="M409.6 264.067C381.363 264.067 358.4 287.03 358.4 315.267C358.4 343.504 381.363 366.467 409.6 366.467C437.837 366.467 460.8 343.504 460.8 315.267C460.8 287.03 437.837 264.067 409.6 264.067ZM409.6 349.4C390.775 349.4 375.467 334.091 375.467 315.267C375.467 296.442 390.776 281.134 409.6 281.134C428.425 281.134 443.733 296.443 443.733 315.267C443.733 334.091 428.425 349.4 409.6 349.4Z" fill="white"/>
<path d="M510.643 216.784L433.843 97.317C432.273 94.876 429.568 93.4 426.666 93.4H332.8C328.081 93.4 324.267 97.223 324.267 101.933V315.266C324.267 319.985 328.081 323.799 332.8 323.799H366.933V306.732H341.333V110.467H422.007L494.933 223.909V306.734H452.266V323.8H503.466C508.185 323.8 511.999 319.986 511.999 315.267V221.4C512 219.77 511.531 218.157 510.643 216.784Z" fill="white"/>
<path d="M375.467 204.333V144.6H443.734V127.533H366.934C362.215 127.533 358.401 131.356 358.401 136.066V212.866C358.401 217.585 362.215 221.399 366.934 221.399H494.934V204.332H375.467V204.333Z" fill="white"/>
<path d="M332.8 33.667H8.533C3.823 33.667 0 37.49 0 42.2V315.267C0 319.986 3.823 323.8 8.533 323.8H76.8V306.733H17.067V50.733H324.267V306.733H162.133V323.8H332.8C337.519 323.8 341.333 319.986 341.333 315.267V42.2C341.333 37.49 337.519 33.667 332.8 33.667Z" fill="white"/>
<path d="M59.733 272.6H8.53296V289.667H59.733V272.6Z" fill="white"/>
<path d="M324.267 272.6H179.2V289.667H324.267V272.6Z" fill="white"/>
<path d="M503.466 272.6H469.333V289.667H503.466V272.6Z" fill="white"/>
<path d="M332.8 67.8H34.1331V84.867H332.8V67.8Z" fill="white"/>
<path d="M128 306.733H110.933V323.8H128V306.733Z" fill="white"/>
<path d="M418.134 306.733H401.067V323.8H418.134V306.733Z" fill="white"/>
<path d="M153.6 -0.467003H34.1331V16.6H153.6V-0.467003Z" fill="white"/>
<path d="M17.067 -0.467003H0V16.6H17.067V-0.467003Z" fill="white"/>
</g>
<defs>
<clipPath id="clip0">
<rect width="512" height="366" fill="white"/>
</clipPath>
</defs>
</svg>
